<svg width="12" height="12" viewBox="0 0 12 12" fill="none" xmlns="http://www.w3.org/2000/svg">
<path d="M5.99998 8.99995C6.6365 8.99995 7.24694 8.7471 7.69703 8.29701C8.14712 7.84692 8.39998 7.23647 8.39998 6.59995H3.59998C3.59998 7.23647 3.85283 7.84692 4.30292 8.29701C4.75301 8.7471 5.36346 8.99995 5.99998 8.99995ZM4.79998 4.79995C4.79998 4.95908 4.73676 5.11169 4.62424 5.22422C4.51172 5.33674 4.35911 5.39995 4.19998 5.39995C4.04085 5.39995 3.88823 5.33674 3.77571 5.22422C3.66319 5.11169 3.59998 4.95908 3.59998 4.79995C3.59998 4.64082 3.66319 4.48821 3.77571 4.37569C3.88823 4.26317 4.04085 4.19995 4.19998 4.19995C4.35911 4.19995 4.51172 4.26317 4.62424 4.37569C4.73676 4.48821 4.79998 4.64082 4.79998 4.79995ZM7.79998 5.39995C7.95911 5.39995 8.11172 5.33674 8.22424 5.22422C8.33676 5.11169 8.39998 4.95908 8.39998 4.79995C8.39998 4.64082 8.33676 4.48821 8.22424 4.37569C8.11172 4.26317 7.95911 4.19995 7.79998 4.19995C7.64085 4.19995 7.48823 4.26317 7.37571 4.37569C7.26319 4.48821 7.19998 4.64082 7.19998 4.79995C7.19998 4.95908 7.26319 5.11169 7.37571 5.22422C7.48823 5.33674 7.64085 5.39995 7.79998 5.39995Z" fill="black"/>
<path fill-rule="evenodd" clip-rule="evenodd" d="M12 6C12 9.3138 9.3138 12 6 12C2.6862 12 0 9.3138 0 6C0 2.6862 2.6862 0 6 0C9.3138 0 12 2.6862 12 6ZM10.8 6C10.8 7.27304 10.2943 8.49394 9.39411 9.39411C8.49394 10.2943 7.27304 10.8 6 10.8C4.72696 10.8 3.50606 10.2943 2.60589 9.39411C1.70571 8.49394 1.2 7.27304 1.2 6C1.2 4.72696 1.70571 3.50606 2.60589 2.60589C3.50606 1.70571 4.72696 1.2 6 1.2C7.27304 1.2 8.49394 1.70571 9.39411 2.60589C10.2943 3.50606 10.8 4.72696 10.8 6Z" fill="black"/>
</svg>
